<svg width="107" height="109" viewBox="0 0 107 109" fill="none" xmlns="http://www.w3.org/2000/svg">
<path d="M57.7618 14.6694C57.9415 14.9597 58.3384 15.0525 58.6422 14.8892C58.9505 14.7233 59.0561 14.356 58.8781 14.0688L57.3366 11.5808C57.1587 11.2935 56.7644 11.1951 56.4562 11.361C56.148 11.5269 56.0423 11.8942 56.2203 12.1814L57.7618 14.6694ZM50.7275 26.0223H47.6445C47.2886 26.0223 47 26.2912 47 26.6229C47 26.9546 47.2886 27.2235 47.6445 27.2235H50.7275C51.0835 27.2235 51.3721 26.9546 51.3721 26.6229C51.3721 26.2912 51.0835 26.0223 50.7275 26.0223ZM65.9123 13.074C66.2683 13.074 66.5569 12.8051 66.5569 12.4734V9.60059C66.5569 9.2689 66.2683 9 65.9123 9C65.5564 9 65.2678 9.2689 65.2678 9.60059V12.4734C65.2678 12.8051 65.5564 13.074 65.9123 13.074ZM73.1825 14.8892C73.4856 15.0522 73.8831 14.9597 74.0629 14.6694L75.6045 12.1814C75.7824 11.8942 75.6768 11.5269 75.3686 11.361C75.0603 11.195 74.6661 11.2936 74.4881 11.5808L72.9466 14.0688C72.7685 14.356 72.8741 14.7233 73.1825 14.8892ZM84.1802 26.0223H81.0972C80.7412 26.0223 80.4526 26.2912 80.4526 26.6229C80.4526 26.9546 80.7412 27.2235 81.0972 27.2235H84.1802C84.5361 27.2235 84.8247 26.9546 84.8247 26.6229C84.8247 26.2912 84.5361 26.0223 84.1802 26.0223ZM82.2909 17.8114C82.1129 17.5242 81.7188 17.4257 81.4105 17.5916L78.7405 19.028C78.4322 19.1939 78.3266 19.5612 78.5046 19.8484C78.6844 20.1386 79.0815 20.232 79.385 20.0682L82.055 18.6318C82.3633 18.466 82.4689 18.0987 82.2909 17.8114V17.8114ZM65.9124 15.2988C65.9123 15.2988 65.9123 15.2988 65.9121 15.2988C64.348 15.2988 62.8253 15.5703 61.3867 16.1056C61.0561 16.2286 60.8951 16.578 61.0271 16.8861C61.1591 17.1942 61.5339 17.3441 61.8648 17.2211C63.1507 16.7426 64.5124 16.5 65.9121 16.5H65.9124C71.9152 16.5001 76.7987 21.0461 76.7987 26.6336C76.7987 29.9034 75.0884 32.9903 72.2235 34.8909C70.4007 36.1003 69.2496 37.9795 69.0645 40.0013H66.5569V34.6409C66.6342 34.5961 66.7079 34.5436 66.775 34.4811L70.4765 31.0332C71.741 29.8553 72.4374 28.2891 72.4374 26.623C72.4374 24.9569 71.741 23.3908 70.4765 22.2128L66.7751 18.765C66.2993 18.3217 65.5254 18.3217 65.0497 18.765L61.3483 22.2129C60.0838 23.3908 59.3874 24.957 59.3874 26.6231C59.3874 28.2891 60.0838 29.8554 61.3483 31.0333L65.0497 34.4812C65.1168 34.5437 65.1905 34.5963 65.2678 34.6409V40.0014H62.7609C62.58 37.9675 61.4485 36.101 59.6558 34.9271C56.7494 33.0238 55.0186 29.9154 55.0259 26.6123C55.0333 23.2616 56.8128 20.1361 59.786 18.2514C60.0804 18.0648 60.1567 17.6913 59.9565 17.4171C59.7563 17.1429 59.3554 17.0717 59.0611 17.2583C55.7355 19.3662 53.7451 22.8621 53.7368 26.6098C53.7286 30.3047 55.6642 33.7814 58.9145 35.9099C60.4002 36.8828 61.3354 38.434 61.4782 40.124C60.8401 40.3683 60.3892 40.9529 60.3892 41.6342V42.6663C60.3892 43.0575 60.5381 43.4169 60.7854 43.6984C60.5381 43.9799 60.3892 44.3393 60.3892 44.7305V45.7627C60.3892 46.663 61.1757 47.3954 62.1425 47.3954H62.7825V48.7112C62.7825 49.422 63.4031 50.0002 64.1658 50.0002H67.6587C68.4215 50.0002 69.042 49.422 69.042 48.7112V47.3954H69.682C70.6488 47.3954 71.4352 46.663 71.4352 45.7627V44.7305C71.4352 44.3393 71.2864 43.9799 71.039 43.6984C71.2864 43.4169 71.4352 43.0575 71.4352 42.6663V41.6342C71.4352 40.9531 70.9847 40.3687 70.347 40.1242C70.494 38.4438 71.4511 36.878 72.9711 35.8696C76.1749 33.7441 78.0877 30.2914 78.0877 26.6338C78.0878 20.3836 72.626 15.2989 65.9124 15.2988V15.2988ZM62.2596 30.1835C61.2386 29.2325 60.6764 27.968 60.6764 26.6229C60.6764 25.2777 61.2386 24.0132 62.2596 23.0622L65.9123 19.6596L69.5651 23.0621C70.586 24.0131 71.1483 25.2776 71.1483 26.6228C71.1483 27.9679 70.586 29.2325 69.5651 30.1835L66.5569 32.9857V30.5059L68.0449 29.1197C68.2967 28.8852 68.2967 28.5049 68.0451 28.2704C67.7933 28.0358 67.3853 28.0357 67.1336 28.2702L66.5569 28.8075V28.0924L68.0449 26.7062C68.2967 26.4717 68.2967 26.0915 68.0451 25.8569C67.7933 25.6223 67.3853 25.6223 67.1336 25.8568L66.5569 26.3939V25.0139C66.5569 24.6822 66.2683 24.4133 65.9123 24.4133C65.5564 24.4133 65.2678 24.6822 65.2678 25.0139V27.1985L64.6911 26.6612C64.4394 26.4268 64.0313 26.4268 63.7796 26.6614C63.528 26.8959 63.528 27.2762 63.7798 27.5107L65.2678 28.8969V29.612L64.6911 29.0748C64.4394 28.8403 64.0313 28.8403 63.7796 29.0749C63.528 29.3095 63.528 29.6898 63.7798 29.9243L65.2678 31.3104V32.9857L62.2596 30.1835ZM67.753 48.711C67.753 48.7594 67.7108 48.7988 67.6588 48.7988H64.1659C64.1139 48.7988 64.0717 48.7594 64.0717 48.711V47.3951H67.753V48.711ZM70.1463 42.666C70.1463 42.904 69.9381 43.0976 69.6822 43.0976H68.4905C68.1345 43.0976 67.8459 43.3665 67.8459 43.6982C67.8459 44.0299 68.1345 44.2988 68.4905 44.2988H69.6821C69.9381 44.2988 70.1462 44.4923 70.1462 44.7303V45.7624C70.1462 46.0004 69.938 46.194 69.6821 46.194H62.1426C61.8866 46.194 61.6784 46.0004 61.6784 45.7624V44.7303C61.6784 44.4924 61.8866 44.2988 62.1426 44.2988H65.9123C66.2683 44.2988 66.5569 44.0299 66.5569 43.6982C66.5569 43.3665 66.2683 43.0976 65.9123 43.0976H62.1426C61.8866 43.0976 61.6784 42.904 61.6784 42.666V41.6339C61.6784 41.3959 61.8866 41.2024 62.1426 41.2024H69.6821C69.9381 41.2024 70.1462 41.3959 70.1462 41.6339V42.666H70.1463ZM53.0842 19.028L50.4142 17.5916C50.106 17.4257 49.7118 17.5242 49.5338 17.8114C49.3558 18.0986 49.4614 18.466 49.7697 18.6318L52.4397 20.0682C52.7426 20.2316 53.1402 20.1387 53.3201 19.8484C53.4981 19.5611 53.3925 19.1938 53.0842 19.028Z" fill="black"/>
<g filter="url(#filter0_d)">
<rect x="4" width="102" height="105" rx="24" fill="url(#paint0_linear)"/>
<path d="M46.7618 16.6694C46.9415 16.9597 47.3384 17.0525 47.6422 16.8892C47.9505 16.7233 48.0561 16.356 47.8781 16.0688L46.3366 13.5808C46.1587 13.2935 45.7644 13.1951 45.4562 13.361C45.148 13.5269 45.0423 13.8942 45.2203 14.1814L46.7618 16.6694ZM39.7275 28.0223H36.6445C36.2886 28.0223 36 28.2912 36 28.6229C36 28.9546 36.2886 29.2235 36.6445 29.2235H39.7275C40.0835 29.2235 40.3721 28.9546 40.3721 28.6229C40.3721 28.2912 40.0835 28.0223 39.7275 28.0223ZM54.9123 15.074C55.2683 15.074 55.5569 14.8051 55.5569 14.4734V11.6006C55.5569 11.2689 55.2683 11 54.9123 11C54.5564 11 54.2678 11.2689 54.2678 11.6006V14.4734C54.2678 14.8051 54.5564 15.074 54.9123 15.074ZM62.1825 16.8892C62.4856 17.0522 62.8831 16.9597 63.0629 16.6694L64.6045 14.1814C64.7824 13.8942 64.6768 13.5269 64.3686 13.361C64.0603 13.195 63.6661 13.2936 63.4881 13.5808L61.9466 16.0688C61.7685 16.356 61.8741 16.7233 62.1825 16.8892ZM73.1802 28.0223H70.0972C69.7412 28.0223 69.4526 28.2912 69.4526 28.6229C69.4526 28.9546 69.7412 29.2235 70.0972 29.2235H73.1802C73.5361 29.2235 73.8247 28.9546 73.8247 28.6229C73.8247 28.2912 73.5361 28.0223 73.1802 28.0223ZM71.2909 19.8114C71.1129 19.5242 70.7188 19.4257 70.4105 19.5916L67.7405 21.028C67.4322 21.1939 67.3266 21.5612 67.5046 21.8484C67.6844 22.1386 68.0815 22.232 68.385 22.0682L71.055 20.6318C71.3633 20.466 71.4689 20.0987 71.2909 19.8114V19.8114ZM54.9124 17.2988C54.9123 17.2988 54.9123 17.2988 54.9121 17.2988C53.348 17.2988 51.8253 17.5703 50.3867 18.1056C50.0561 18.2286 49.8951 18.578 50.0271 18.8861C50.1591 19.1942 50.5339 19.3441 50.8648 19.2211C52.1507 18.7426 53.5124 18.5 54.9121 18.5H54.9124C60.9152 18.5001 65.7987 23.0461 65.7987 28.6336C65.7987 31.9034 64.0884 34.9903 61.2235 36.8909C59.4007 38.1003 58.2496 39.9795 58.0645 42.0013H55.5569V36.6409C55.6342 36.5961 55.7079 36.5436 55.775 36.4811L59.4765 33.0332C60.741 31.8553 61.4374 30.2891 61.4374 28.623C61.4374 26.9569 60.741 25.3908 59.4765 24.2128L55.7751 20.765C55.2993 20.3217 54.5254 20.3217 54.0497 20.765L50.3483 24.2129C49.0838 25.3908 48.3874 26.957 48.3874 28.6231C48.3874 30.2891 49.0838 31.8554 50.3483 33.0333L54.0497 36.4812C54.1168 36.5437 54.1905 36.5963 54.2678 36.6409V42.0014H51.7609C51.58 39.9675 50.4485 38.101 48.6558 36.9271C45.7494 35.0238 44.0186 31.9154 44.0259 28.6123C44.0333 25.2616 45.8128 22.1361 48.786 20.2514C49.0804 20.0648 49.1567 19.6913 48.9565 19.4171C48.7563 19.1429 48.3554 19.0717 48.0611 19.2583C44.7355 21.3662 42.7451 24.8621 42.7368 28.6098C42.7286 32.3047 44.6642 35.7814 47.9145 37.9099C49.4002 38.8828 50.3354 40.434 50.4782 42.124C49.8401 42.3683 49.3892 42.9529 49.3892 43.6342V44.6663C49.3892 45.0575 49.5381 45.4169 49.7854 45.6984C49.5381 45.9799 49.3892 46.3393 49.3892 46.7305V47.7627C49.3892 48.663 50.1757 49.3954 51.1425 49.3954H51.7825V50.7112C51.7825 51.422 52.4031 52.0002 53.1658 52.0002H56.6587C57.4215 52.0002 58.042 51.422 58.042 50.7112V49.3954H58.682C59.6488 49.3954 60.4352 48.663 60.4352 47.7627V46.7305C60.4352 46.3393 60.2864 45.9799 60.039 45.6984C60.2864 45.4169 60.4352 45.0575 60.4352 44.6663V43.6342C60.4352 42.9531 59.9847 42.3687 59.347 42.1242C59.494 40.4438 60.4511 38.878 61.9711 37.8696C65.1749 35.7441 67.0877 32.2914 67.0877 28.6338C67.0878 22.3836 61.626 17.2989 54.9124 17.2988V17.2988ZM51.2596 32.1835C50.2386 31.2325 49.6764 29.968 49.6764 28.6229C49.6764 27.2777 50.2386 26.0132 51.2596 25.0622L54.9123 21.6596L58.5651 25.0621C59.586 26.0131 60.1483 27.2776 60.1483 28.6228C60.1483 29.9679 59.586 31.2325 58.5651 32.1835L55.5569 34.9857V32.5059L57.0449 31.1197C57.2967 30.8852 57.2967 30.5049 57.0451 30.2704C56.7933 30.0358 56.3853 30.0357 56.1336 30.2702L55.5569 30.8075V30.0924L57.0449 28.7062C57.2967 28.4717 57.2967 28.0915 57.0451 27.8569C56.7933 27.6223 56.3853 27.6223 56.1336 27.8568L55.5569 28.3939V27.0139C55.5569 26.6822 55.2683 26.4133 54.9123 26.4133C54.5564 26.4133 54.2678 26.6822 54.2678 27.0139V29.1985L53.6911 28.6612C53.4394 28.4268 53.0313 28.4268 52.7796 28.6614C52.528 28.8959 52.528 29.2762 52.7798 29.5107L54.2678 30.8969V31.612L53.6911 31.0748C53.4394 30.8403 53.0313 30.8403 52.7796 31.0749C52.528 31.3095 52.528 31.6898 52.7798 31.9243L54.2678 33.3104V34.9857L51.2596 32.1835ZM56.753 50.711C56.753 50.7594 56.7108 50.7988 56.6588 50.7988H53.1659C53.1139 50.7988 53.0717 50.7594 53.0717 50.711V49.3951H56.753V50.711ZM59.1463 44.666C59.1463 44.904 58.9381 45.0976 58.6822 45.0976H57.4905C57.1345 45.0976 56.8459 45.3665 56.8459 45.6982C56.8459 46.0299 57.1345 46.2988 57.4905 46.2988H58.6821C58.9381 46.2988 59.1462 46.4923 59.1462 46.7303V47.7624C59.1462 48.0004 58.938 48.194 58.6821 48.194H51.1426C50.8866 48.194 50.6784 48.0004 50.6784 47.7624V46.7303C50.6784 46.4924 50.8866 46.2988 51.1426 46.2988H54.9123C55.2683 46.2988 55.5569 46.0299 55.5569 45.6982C55.5569 45.3665 55.2683 45.0976 54.9123 45.0976H51.1426C50.8866 45.0976 50.6784 44.904 50.6784 44.666V43.6339C50.6784 43.3959 50.8866 43.2024 51.1426 43.2024H58.6821C58.9381 43.2024 59.1462 43.3959 59.1462 43.6339V44.666H59.1463ZM42.0842 21.028L39.4142 19.5916C39.106 19.4257 38.7118 19.5242 38.5338 19.8114C38.3558 20.0986 38.4614 20.466 38.7697 20.6318L41.4397 22.0682C41.7426 22.2316 42.1402 22.1387 42.3201 21.8484C42.4981 21.5611 42.3925 21.1938 42.0842 21.028Z" fill="white"/>
<path d="M34.529 78.18C33.699 78.18 32.894 78.07 32.114 77.85C31.344 77.62 30.724 77.325 30.254 76.965L31.079 75.135C31.529 75.465 32.064 75.73 32.684 75.93C33.304 76.13 33.924 76.23 34.544 76.23C35.234 76.23 35.744 76.13 36.074 75.93C36.404 75.72 36.569 75.445 36.569 75.105C36.569 74.855 36.469 74.65 36.269 74.49C36.079 74.32 35.829 74.185 35.519 74.085C35.219 73.985 34.809 73.875 34.289 73.755C33.489 73.565 32.834 73.375 32.324 73.185C31.814 72.995 31.374 72.69 31.004 72.27C30.644 71.85 30.464 71.29 30.464 70.59C30.464 69.98 30.629 69.43 30.959 68.94C31.289 68.44 31.784 68.045 32.444 67.755C33.114 67.465 33.929 67.32 34.889 67.32C35.559 67.32 36.214 67.4 36.854 67.56C37.494 67.72 38.054 67.95 38.534 68.25L37.784 70.095C36.814 69.545 35.844 69.27 34.874 69.27C34.194 69.27 33.689 69.38 33.359 69.6C33.039 69.82 32.879 70.11 32.879 70.47C32.879 70.83 33.064 71.1 33.434 71.28C33.814 71.45 34.389 71.62 35.159 71.79C35.959 71.98 36.614 72.17 37.124 72.36C37.634 72.55 38.069 72.85 38.429 73.26C38.799 73.67 38.984 74.225 38.984 74.925C38.984 75.525 38.814 76.075 38.474 76.575C38.144 77.065 37.644 77.455 36.974 77.745C36.304 78.035 35.489 78.18 34.529 78.18ZM43.7344 69.81C44.9844 69.81 45.9444 70.11 46.6144 70.71C47.2844 71.3 47.6194 72.195 47.6194 73.395V78H45.4294V76.995C44.9894 77.745 44.1694 78.12 42.9694 78.12C42.3494 78.12 41.8094 78.015 41.3494 77.805C40.8994 77.595 40.5544 77.305 40.3144 76.935C40.0744 76.565 39.9544 76.145 39.9544 75.675C39.9544 74.925 40.2344 74.335 40.7944 73.905C41.3644 73.475 42.2394 73.26 43.4194 73.26H45.2794C45.2794 72.75 45.1244 72.36 44.8144 72.09C44.5044 71.81 44.0394 71.67 43.4194 71.67C42.9894 71.67 42.5644 71.74 42.1444 71.88C41.7344 72.01 41.3844 72.19 41.0944 72.42L40.2544 70.785C40.6944 70.475 41.2194 70.235 41.8294 70.065C42.4494 69.895 43.0844 69.81 43.7344 69.81ZM43.5544 76.545C43.9544 76.545 44.3094 76.455 44.6194 76.275C44.9294 76.085 45.1494 75.81 45.2794 75.45V74.625H43.6744C42.7144 74.625 42.2344 74.94 42.2344 75.57C42.2344 75.87 42.3494 76.11 42.5794 76.29C42.8194 76.46 43.1444 76.545 43.5544 76.545ZM52.3022 70.11H54.3722V71.91H52.3622V78H50.0222V71.91H48.7772V70.11H50.0222V69.75C50.0222 68.83 50.2922 68.1 50.8322 67.56C51.3822 67.02 52.1522 66.75 53.1422 66.75C53.4922 66.75 53.8222 66.79 54.1322 66.87C54.4522 66.94 54.7172 67.045 54.9272 67.185L54.3122 68.88C54.0422 68.69 53.7272 68.595 53.3672 68.595C52.6572 68.595 52.3022 68.985 52.3022 69.765V70.11ZM56.2765 78.12C55.8665 78.12 55.5215 77.98 55.2415 77.7C54.9615 77.42 54.8215 77.07 54.8215 76.65C54.8215 76.22 54.9615 75.875 55.2415 75.615C55.5215 75.345 55.8665 75.21 56.2765 75.21C56.6865 75.21 57.0315 75.345 57.3115 75.615C57.5915 75.875 57.7315 76.22 57.7315 76.65C57.7315 77.07 57.5915 77.42 57.3115 77.7C57.0315 77.98 56.6865 78.12 56.2765 78.12ZM64.2743 78.18C63.1843 78.18 62.1993 77.945 61.3193 77.475C60.4493 77.005 59.7643 76.36 59.2643 75.54C58.7743 74.71 58.5293 73.78 58.5293 72.75C58.5293 71.72 58.7743 70.795 59.2643 69.975C59.7643 69.145 60.4493 68.495 61.3193 68.025C62.1993 67.555 63.1843 67.32 64.2743 67.32C65.3643 67.32 66.3443 67.555 67.2143 68.025C68.0843 68.495 68.7693 69.145 69.2693 69.975C69.7693 70.795 70.0193 71.72 70.0193 72.75C70.0193 73.78 69.7693 74.71 69.2693 75.54C68.7693 76.36 68.0843 77.005 67.2143 77.475C66.3443 77.945 65.3643 78.18 64.2743 78.18ZM64.2743 76.11C64.8943 76.11 65.4543 75.97 65.9543 75.69C66.4543 75.4 66.8443 75 67.1243 74.49C67.4143 73.98 67.5593 73.4 67.5593 72.75C67.5593 72.1 67.4143 71.52 67.1243 71.01C66.8443 70.5 66.4543 70.105 65.9543 69.825C65.4543 69.535 64.8943 69.39 64.2743 69.39C63.6543 69.39 63.0943 69.535 62.5943 69.825C62.0943 70.105 61.6993 70.5 61.4093 71.01C61.1293 71.52 60.9893 72.1 60.9893 72.75C60.9893 73.4 61.1293 73.98 61.4093 74.49C61.6993 75 62.0943 75.4 62.5943 75.69C63.0943 75.97 63.6543 76.11 64.2743 76.11ZM75.2956 78.18C74.4656 78.18 73.6606 78.07 72.8806 77.85C72.1106 77.62 71.4906 77.325 71.0206 76.965L71.8456 75.135C72.2956 75.465 72.8306 75.73 73.4506 75.93C74.0706 76.13 74.6906 76.23 75.3106 76.23C76.0006 76.23 76.5106 76.13 76.8406 75.93C77.1706 75.72 77.3356 75.445 77.3356 75.105C77.3356 74.855 77.2356 74.65 77.0356 74.49C76.8456 74.32 76.5956 74.185 76.2856 74.085C75.9856 73.985 75.5756 73.875 75.0556 73.755C74.2556 73.565 73.6006 73.375 73.0906 73.185C72.5806 72.995 72.1406 72.69 71.7706 72.27C71.4106 71.85 71.2306 71.29 71.2306 70.59C71.2306 69.98 71.3956 69.43 71.7256 68.94C72.0556 68.44 72.5506 68.045 73.2106 67.755C73.8806 67.465 74.6956 67.32 75.6556 67.32C76.3256 67.32 76.9806 67.4 77.6206 67.56C78.2606 67.72 78.8206 67.95 79.3006 68.25L78.5506 70.095C77.5806 69.545 76.6106 69.27 75.6406 69.27C74.9606 69.27 74.4556 69.38 74.1256 69.6C73.8056 69.82 73.6456 70.11 73.6456 70.47C73.6456 70.83 73.8306 71.1 74.2006 71.28C74.5806 71.45 75.1556 71.62 75.9256 71.79C76.7256 71.98 77.3806 72.17 77.8906 72.36C78.4006 72.55 78.8356 72.85 79.1956 73.26C79.5656 73.67 79.7506 74.225 79.7506 74.925C79.7506 75.525 79.5806 76.075 79.2406 76.575C78.9106 77.065 78.4106 77.455 77.7406 77.745C77.0706 78.035 76.2556 78.18 75.2956 78.18Z" fill="white"/>
<g filter="url(#filter1_d)">
<path fill-rule="evenodd" clip-rule="evenodd" d="M4.11806 22C4.03998 22.7879 4 23.5871 4 24.3955V81.3955C4 94.6504 14.7452 105.396 28 105.396H90C90.6591 105.396 91.3119 105.369 91.9576 105.317C88.4101 105.369 84.7586 105.396 80.9999 105.396C36.2648 105.396 4.49989 89.7123 4.49989 49.3955C4.49989 45.5445 4.40409 41.5578 4.30661 37.5013C4.18404 32.4009 4.05883 27.1902 4.11806 22Z" fill="white"/>
</g>
</g>
<defs>
<filter id="filter0_d" x="3" y="0" width="104" height="107.396" filterUnits="userSpaceOnUse" color-interpolation-filters="sRGB">
<feFlood flood-opacity="0" result="BackgroundImageFix"/>

<feOffset dy="1"/>
<feGaussianBlur stdDeviation="0.5"/>
<feColorMatrix type="matrix" values="0 0 0 0 0 0 0 0 0 0 0 0 0 0 0 0 0 0 0.25 0"/>
<feBlend mode="normal" in2="BackgroundImageFix" result="effect1_dropShadow"/>
<feBlend mode="normal" in="SourceGraphic" in2="effect1_dropShadow" result="shape"/>
</filter>
<filter id="filter1_d" x="0" y="17" width="95.9576" height="91.3955" filterUnits="userSpaceOnUse" color-interpolation-filters="sRGB">
<feFlood flood-opacity="0" result="BackgroundImageFix"/>
<feColorMatrix in="SourceAlpha" type="matrix" values="0 0 0 0 0 0 0 0 0 0 0 0 0 0 0 0 0 0 127 0"/>
<feOffset dy="-1"/>
<feGaussianBlur stdDeviation="0.5"/>
<feColorMatrix type="matrix" values="0 0 0 0 0 0 0 0 0 0 0 0 0 0 0 0 0 0 0.25 0"/>
<feBlend mode="normal" in2="BackgroundImageFix" result="effect1_dropShadow"/>
<feBlend mode="normal" in="SourceGraphic" in2="effect1_dropShadow" result="shape"/>
</filter>
<linearGradient id="paint0_linear" x1="86.5" y1="1.21373e-06" x2="23" y2="98" gradientUnits="userSpaceOnUse">
<stop stop-color="#06B3B7"/>
<stop offset="1" stop-color="#02BFAB"/>
</linearGradient>
</defs>
</svg>
